<svg version="1.1" id="Layer_1" xmlns="http://www.w3.org/2000/svg" xmlns:xlink="http://www.w3.org/1999/xlink" x="0px" y="0px"
	 width="100%" viewBox="0 0 1416 1024" enable-background="new 0 0 1416 1024" xml:space="preserve">
<path fill="#FFFFFF" opacity="1.000000" stroke="none" 
	d="
M882.000000,1025.000000 
	C588.000000,1025.000000 294.500000,1025.000000 1.000000,1025.000000 
	C1.000000,683.666687 1.000000,342.333344 1.000000,1.000000 
	C473.000000,1.000000 945.000000,1.000000 1417.000000,1.000000 
	C1417.000000,342.333344 1417.000000,683.666687 1417.000000,1025.000000 
	C1238.833374,1025.000000 1060.666626,1025.000000 882.000000,1025.000000 
M918.400757,673.697144 
	C922.159607,673.591736 926.000916,672.961487 929.653015,673.535400 
	C932.993164,674.060242 933.793396,673.022278 934.037109,670.099426 
	C934.362915,666.192688 934.979004,662.310181 935.394836,659.016541 
	C939.638611,657.707825 943.381042,656.553650 947.123474,655.399475 
	C947.061035,654.957947 946.998596,654.516418 946.936157,654.074890 
	C945.629272,653.347595 944.322449,652.620361 942.845581,651.798462 
	C943.322205,650.920776 943.608948,649.888000 943.929077,649.877502 
	C951.438660,649.631958 949.627380,643.348022 950.925659,639.123047 
	C951.162109,638.353516 950.776855,637.338440 951.126465,636.671570 
	C951.594727,635.778381 952.499634,635.114197 953.217041,634.351746 
	C953.750610,635.256409 954.444885,636.106567 954.775146,637.080139 
	C955.150146,638.185303 955.022339,640.342957 955.418701,640.417480 
	C958.241394,640.948303 961.568115,641.997498 963.855530,640.954346 
	C965.189514,640.345947 965.033752,636.190247 965.275940,633.605103 
	C965.374451,632.554016 964.750122,631.435181 964.468506,630.398071 
	C958.892578,630.686829 958.817322,630.616394 960.016907,626.427368 
	C961.331970,626.937500 962.645691,627.447083 965.005371,628.362366 
	C965.005371,624.199768 965.245483,620.708313 964.954468,617.261658 
	C964.383423,610.499329 964.256165,610.426941 971.026184,610.031799 
	C974.268860,609.842529 975.519348,608.344543 976.105286,605.162964 
	C976.951965,600.565613 975.621094,594.970520 981.174438,592.085266 
	C981.694092,591.815247 981.977539,590.593811 981.943176,589.833374 
	C981.689758,584.219482 981.327759,578.610535 981.628723,572.687988 
	C984.627380,570.045532 989.383240,569.285339 990.382751,564.450378 
	C990.470642,564.025024 991.491028,563.807495 992.060547,563.464050 
	C994.825623,561.796448 998.237366,548.229675 996.561401,545.493103 
	C996.311951,545.085754 995.935120,544.562683 995.532104,544.472168 
	C989.803101,543.185669 991.850830,539.570190 993.311401,536.484558 
	C995.889832,531.037048 998.199219,525.947205 997.268555,519.340454 
	C996.360107,512.890991 997.920105,506.131226 997.921082,499.507629 
	C997.922607,488.958435 996.372986,478.262726 997.683655,467.908051 
	C998.665344,460.152985 997.397827,452.918732 997.078979,445.444489 
	C996.968933,442.863190 997.356201,440.091064 998.246216,437.674957 
	C999.717773,433.679993 998.005737,430.883636 996.190002,427.554779 
	C994.620605,424.677429 992.963196,420.496185 993.933044,417.834412 
	C997.072815,409.216888 998.451721,400.575806 998.046875,391.477844 
	C997.736084,384.492554 995.205017,382.336578 988.256653,383.284760 
	C986.973022,383.459900 984.480835,382.400909 984.257446,381.491272 
	C982.773804,375.450500 981.378540,369.457397 982.855835,362.995972 
	C983.775085,358.975525 983.028625,354.548920 982.850647,350.312103 
	C982.740173,347.679718 982.097473,345.065826 982.039185,342.435944 
	C981.896606,336.009369 981.940247,335.964691 975.613464,336.004974 
	C974.449341,336.012390 973.136475,335.750000 972.149841,336.189819 
	C969.260315,337.477936 967.678467,335.814850 967.409302,333.595947 
	C966.759094,328.235352 965.886047,322.708130 966.543579,317.427521 
	C967.550415,309.341339 965.993225,307.268555 960.085571,308.857147 
	C957.158691,306.815826 955.299255,304.933167 953.049744,304.085632 
	C949.559692,302.770538 947.729980,297.915894 949.453918,294.616272 
	C950.398254,292.808594 950.163696,290.385040 950.460754,288.239197 
	C948.497314,288.221954 946.532898,288.164215 944.570984,288.211243 
	C943.952759,288.226044 943.341248,288.521667 944.050232,288.328888 
	C941.229004,285.180664 938.760803,282.780334 936.747742,280.045074 
	C935.568909,278.443298 935.015991,276.341095 934.363586,274.402710 
	C933.674011,272.353851 933.355347,270.173828 932.593750,268.157196 
	C931.625549,265.593597 929.061890,262.862854 929.515015,260.689758 
	C930.510315,255.916290 927.677673,255.620911 924.706665,255.060211 
	C922.978882,254.734116 921.169067,254.842987 918.741211,254.724045 
	C918.741211,251.349792 918.746155,248.462723 918.739380,245.575684 
	C918.735413,243.884125 919.385315,241.477844 918.533569,240.676392 
	C917.389526,239.599884 915.090332,239.681549 913.264465,239.429153 
	C912.383423,239.307388 911.450806,239.558441 910.567444,239.638321 
	C909.432434,232.606705 909.432434,232.606705 902.729309,231.457687 
	C902.729309,227.090057 902.234619,222.653397 902.832520,218.369217 
	C904.067871,209.517303 900.593323,205.775650 891.625732,207.068710 
	C882.682922,208.358185 880.130432,206.516937 878.524597,197.551743 
	C878.965698,197.383926 879.466248,197.282776 879.865967,197.025177 
	C881.210571,196.158707 882.519287,195.236481 883.841736,194.335632 
	C882.403809,193.557526 881.046509,192.432144 879.510681,192.075287 
	C876.529358,191.382538 873.447693,191.121582 870.106506,190.638168 
	C870.633301,188.830582 871.034912,187.584457 871.358521,186.318390 
	C872.653625,181.252609 864.908875,173.340164 859.864075,174.560074 
	C853.900208,176.002213 853.900208,176.002243 855.546509,169.864182 
	C857.228882,163.591766 854.444275,160.022186 847.843445,160.001663 
	C844.727722,159.991974 841.612000,160.000000 837.999939,160.000000 
	C837.999939,156.089081 837.994873,152.854416 838.000977,149.619781 
	C838.012146,143.680496 833.791077,140.732162 828.087891,142.406021 
	C826.316162,142.926025 822.855530,143.108902 822.613464,142.489822 
	C821.541504,139.748840 821.239990,136.673279 820.903259,133.691284 
	C820.718628,132.056152 821.723511,129.648895 820.932251,128.870758 
	C819.768433,127.726227 817.486084,127.363327 815.666443,127.325127 
	C812.967529,127.268456 810.256592,127.787445 807.624756,128.053909 
	C805.832642,116.900002 805.756714,116.843475 797.333862,120.289116 
	C797.998718,118.050423 798.663635,115.811737 799.437927,113.204559 
	C796.391602,109.915176 792.219604,111.313164 788.156067,111.263985 
	C786.315430,111.241707 784.224060,109.600769 782.814087,108.144539 
	C782.303772,107.617470 783.010925,104.987747 783.924683,104.185295 
	C786.314819,102.086166 788.335388,99.512726 785.772522,97.124184 
	C783.833984,95.317459 779.316895,93.590065 777.709290,94.608536 
	C772.417053,97.961395 767.780884,95.220062 763.005371,94.378532 
	C759.315186,93.728241 755.956482,87.701889 756.755493,84.471451 
	C757.044922,83.301239 757.013855,82.051750 757.129028,80.838425 
	C755.609314,80.874878 754.052734,81.138428 752.577820,80.898888 
	C749.801941,80.448036 746.923401,80.034760 744.415527,78.888298 
	C743.656006,78.541084 743.622437,75.776245 743.864136,74.212761 
	C744.885498,67.606522 737.346802,61.374355 730.761963,62.788788 
	C725.565002,63.905113 720.102356,63.882504 714.746765,64.113441 
	C712.675659,64.202736 710.574524,63.596992 708.487061,63.307907 
	C708.242371,65.432831 708.176697,67.598167 707.708618,69.672684 
	C707.088684,72.419701 706.872498,75.747833 705.164429,77.629585 
	C703.229797,79.760979 700.394531,82.565361 696.497253,79.559311 
	C695.570374,78.844360 692.109802,79.511375 691.799988,80.311523 
	C691.226929,81.791512 691.962952,83.888344 692.499695,85.621117 
	C692.660889,86.141640 693.968689,86.307076 694.736755,86.629120 
	C690.652405,93.003693 686.566528,96.657883 679.525757,95.548538 
	C678.613403,95.404785 676.116089,98.201614 676.370056,98.967064 
	C677.697083,102.966339 675.434326,103.319939 672.537109,104.132576 
	C670.892395,104.593903 669.421204,106.301865 668.295776,107.772751 
	C667.499939,108.812859 667.414978,110.396873 667.000000,111.780411 
	C662.501953,111.137886 658.602356,110.457916 654.674316,110.056374 
	C651.162781,109.697433 647.854919,110.999733 647.542175,114.624062 
	C647.388306,116.407356 650.041443,118.478195 651.537781,120.327118 
	C651.917664,120.796471 652.731323,120.914680 653.159973,121.109734 
	C651.195801,126.103096 649.499512,129.077805 643.749939,127.296730 
	C637.926941,125.492943 635.697876,128.234879 637.042419,133.755936 
	C637.339539,134.975723 636.091919,136.571701 635.437256,138.308517 
	C633.453369,136.842102 632.282959,135.977005 631.232605,135.200607 
	C627.644836,138.499420 624.201416,141.563080 620.911682,144.783691 
	C620.311951,145.370773 620.087952,146.606171 620.117371,147.528610 
	C620.314392,153.697937 620.181030,153.818237 613.501343,150.765060 
	C612.633911,153.525909 611.930115,156.169281 610.967407,158.714737 
	C610.039795,161.167435 609.145752,163.725647 607.682617,165.856949 
	C606.215881,167.993393 603.666626,169.413712 602.316711,171.596222 
	C600.757080,174.117813 599.982422,175.821793 596.053162,175.225357 
	C584.713074,173.503937 579.468628,178.429535 578.984192,190.062027 
	C578.951355,190.850616 578.747681,191.632080 578.473572,193.364166 
	C572.602478,188.245636 569.826477,193.053268 566.181885,196.198227 
	C560.541138,201.065689 564.907837,207.275589 563.629333,212.746521 
	C562.922852,215.769699 556.470154,226.757706 553.667358,225.681107 
	C546.574036,222.956390 547.667969,225.976028 549.666870,230.382812 
	C549.762085,230.592651 549.463257,230.994110 549.324219,231.295441 
	C547.190369,235.920990 545.700989,241.080963 539.892090,242.025513 
	C537.145447,241.338837 532.846558,240.110870 531.906677,241.376801 
	C529.697205,244.352814 531.278137,247.415497 534.846436,249.449844 
	C535.559814,249.856537 535.184998,253.244888 534.452393,254.871292 
	C533.258789,257.521271 531.441833,259.913818 529.714905,262.289276 
	C528.978821,263.301819 527.874695,264.530334 526.810974,264.665863 
	C525.983704,264.771271 525.009888,263.259949 524.012756,262.600922 
	C522.248962,261.435272 519.964844,259.110321 518.720093,259.557495 
	C516.801208,260.246887 514.418396,262.788849 514.294189,264.680359 
	C514.029541,268.711700 514.579407,272.981140 515.733459,276.875061 
	C517.231079,281.928284 515.035339,287.345215 510.106628,289.020569 
	C507.086639,290.047119 502.976105,290.562317 501.493988,292.753662 
	C499.511902,295.684235 499.304779,299.986053 498.916534,303.758789 
	C498.689148,305.968445 500.036469,308.320404 499.905609,310.563385 
	C499.460907,318.184937 494.353455,321.693878 487.523956,319.374298 
	C484.616821,318.386902 482.046204,320.451172 482.109558,323.941742 
	C482.136047,325.399811 482.725006,326.844696 483.032166,328.301056 
	C485.079468,338.007904 485.223267,347.168854 475.964478,353.773010 
	C475.222778,354.302032 474.685669,355.368439 474.430359,356.289612 
	C472.222198,364.256744 469.997223,372.222015 467.992432,380.241638 
	C466.824249,384.914581 467.322815,390.649506 459.888092,390.330200 
	C459.308838,390.305298 458.460480,391.934784 458.067749,392.926300 
	C455.533386,399.324524 450.257690,404.951385 452.504669,412.747742 
	C452.714050,413.474152 451.407471,414.531250 451.387360,415.447571 
	C451.269806,420.808441 451.261292,426.174225 451.350494,431.536102 
	C451.395142,434.218597 452.297028,437.009308 451.795166,439.550415 
	C450.992981,443.612274 449.505005,447.460571 451.628143,451.578827 
	C452.077606,452.450623 451.646271,453.819794 451.504578,454.945190 
	C451.031464,458.703186 450.115387,462.449799 450.069427,466.209320 
	C449.896393,480.373749 449.980194,494.541565 450.024536,508.707947 
	C450.030182,510.516327 450.467163,512.319824 450.537628,514.132080 
	C450.773193,520.189758 450.913910,526.251099 451.128082,532.309692 
	C451.293976,537.001404 451.563232,541.689880 451.692871,546.382385 
	C451.761658,548.870056 451.627594,551.363281 451.591248,553.854065 
	C451.557251,556.183533 450.552948,559.399841 451.698792,560.664185 
	C454.356537,563.596863 453.763489,566.254578 452.982391,569.389771 
	C450.927643,577.637207 453.268158,579.983643 461.735931,578.692322 
	C463.002045,578.499207 465.319153,579.167053 465.658264,580.025757 
	C466.800751,582.918884 467.889221,586.084717 467.855133,589.133484 
	C467.800934,593.986633 466.539490,598.819458 466.370361,603.681152 
	C466.292358,605.923950 467.589478,608.214600 468.263123,610.483521 
	C470.149384,609.886475 472.036011,609.290649 473.921661,608.691711 
	C474.383484,608.544983 474.842041,608.388123 475.663849,608.116272 
	C477.665863,609.778870 480.936096,611.150574 481.667603,613.362000 
	C483.621399,619.268860 485.253815,625.452820 482.666534,631.813354 
	C481.951294,633.571716 481.931335,635.745239 482.072357,637.693420 
	C482.423889,642.549194 485.469482,644.040283 490.115204,642.390808 
	C492.247589,641.633728 496.392548,641.080139 496.806244,641.884277 
	C498.692932,645.551758 499.641205,649.716370 500.783966,653.742798 
	C501.099426,654.854431 500.922852,656.105713 500.972046,657.292847 
	C502.096954,656.920959 503.241150,656.597229 504.338959,656.157715 
	C504.922882,655.923889 505.426392,655.489136 505.968689,655.143555 
	C508.849060,656.772400 511.638367,658.138123 508.746796,661.997498 
	C508.256805,662.651489 508.382019,664.439209 508.936829,665.013550 
	C509.489807,665.585999 510.955383,665.436768 511.992950,665.330933 
	C512.836609,665.244873 513.639099,664.755005 514.782532,664.322021 
	C514.870789,666.114868 515.125183,667.450500 514.966064,668.734924 
	C514.384033,673.432861 516.088684,675.606995 521.069275,675.110352 
	C522.282837,674.989380 523.811768,675.961670 524.874695,676.825989 
	C527.161621,678.685425 529.239746,680.801514 531.477051,682.881042 
	C530.343079,690.057373 530.343079,690.057373 539.614807,691.575256 
	C539.134583,698.114990 544.760742,697.356323 548.584595,698.563843 
	C548.688232,699.167725 548.826721,699.500610 548.785278,699.809387 
	C548.502136,701.919800 548.181213,704.025208 547.872559,706.132263 
	C550.002441,705.928955 552.257080,705.186401 554.234253,705.643616 
	C557.534912,706.406982 561.103271,707.355225 563.704834,709.343445 
	C565.538330,710.744507 565.957397,713.996338 567.408691,717.346924 
	C567.342102,717.466370 566.672974,718.666199 565.484192,720.797791 
	C567.523193,720.639160 569.212708,721.008179 569.762146,720.380066 
	C572.406677,717.356812 575.338562,717.824707 578.342468,719.308167 
	C581.281067,720.759399 585.934631,721.938538 586.588623,724.183167 
	C588.201294,729.718079 591.550293,730.396912 596.122009,730.285645 
	C596.634155,730.273193 597.164062,730.993103 597.650146,731.347473 
	C594.995728,738.272278 595.992188,739.579346 603.378906,738.967102 
	C604.519592,738.872559 605.636658,738.253845 606.762085,738.261414 
	C609.960999,738.282776 613.171631,738.371277 616.352417,738.687073 
	C618.803467,738.930481 621.212036,739.582825 623.647522,740.007446 
	C626.177856,740.448608 627.881165,741.161194 627.391846,744.491577 
	C626.311340,751.846191 629.493286,754.400513 636.577942,752.250305 
	C638.169189,751.767334 639.759216,750.859070 641.341248,750.877563 
	C643.165405,750.898865 645.015564,751.627075 646.790466,752.234924 
	C649.212036,753.064209 651.533203,754.701111 653.969543,754.855896 
	C657.888977,755.104858 661.885254,754.041565 665.816833,754.224609 
	C672.245178,754.523926 678.638428,755.525879 685.065430,755.931519 
	C687.828125,756.105896 690.085571,756.162903 691.847168,758.960632 
	C692.641357,760.221863 695.227112,760.355042 697.833313,761.000000 
	C699.222229,761.000000 700.611084,761.000000 702.875000,761.000000 
	C704.916687,761.000000 706.958313,761.000000 709.303711,761.615906 
	C713.005066,764.942017 713.843018,764.739807 716.729858,759.991760 
	C718.819885,758.327820 720.909912,756.663879 723.546570,755.227905 
	C724.364380,755.151917 725.182190,755.075989 726.691162,755.072937 
	C729.127441,757.048645 731.563721,759.024292 734.338074,761.636292 
	C736.164001,762.618042 737.989929,763.599792 740.923645,765.177185 
	C735.905884,766.431091 732.130371,766.982239 728.705078,768.387207 
	C726.842163,769.151428 724.463074,771.236816 724.263489,772.952637 
	C723.815247,776.806335 724.582214,780.801392 724.558960,784.541870 
	C724.558960,784.541870 724.470337,784.875366 723.645813,784.427063 
	C720.871582,784.617554 718.100159,784.883728 715.322632,784.984009 
	C707.452820,785.268188 707.451843,785.241455 708.805115,792.861694 
	C709.599548,797.335144 707.641357,799.734436 703.130676,800.028564 
	C701.329712,800.145996 699.548645,800.837341 697.760254,800.830444 
	C692.216980,800.809082 691.870911,804.317322 691.944519,808.569153 
	C692.019348,812.894958 691.537170,817.153015 697.893066,817.191345 
	C703.536621,817.225403 707.390503,820.025940 707.851318,825.847534 
	C708.094543,828.919861 709.171326,830.247559 711.869019,831.750000 
	C718.148804,835.247131 718.420959,838.939514 713.965881,844.811401 
	C712.162720,847.187988 712.629822,849.406799 715.856873,849.882080 
	C718.379944,850.253723 721.001465,849.956543 724.395935,849.956543 
	C723.884094,856.603516 723.373474,863.235107 722.862793,869.866699 
	C722.067932,870.288696 721.273010,870.710693 720.478088,871.132690 
	C720.989990,864.068115 717.152588,863.746521 712.673462,863.731323 
	C711.779480,863.728333 710.087280,861.171509 710.153992,859.863159 
	C710.364807,855.723755 709.084106,853.412415 704.806702,853.781921 
	C703.963623,851.697388 703.241333,849.911621 702.439697,847.929565 
	C698.617493,849.158691 694.218018,850.115234 693.654907,845.476990 
	C693.168335,841.468872 694.368958,837.623047 688.569275,837.293091 
	C688.330017,837.279480 688.085388,836.151001 687.961731,835.518738 
	C687.347168,832.376343 685.540710,831.676758 682.493286,832.238281 
	C678.295959,833.011597 677.126953,831.557007 677.820557,827.125183 
	C678.256226,824.341187 677.484375,823.131165 674.487000,821.709778 
	C670.524902,819.830811 668.243591,814.741150 662.824158,815.043701 
	C662.783630,809.812622 659.831238,806.472656 656.245422,802.952637 
	C654.591125,801.328796 654.186096,799.941467 651.463501,800.605164 
	C647.569275,801.554382 644.714722,798.560730 645.249268,794.633789 
	C645.595581,792.089539 638.249268,784.056274 635.743530,784.245667 
	C635.581848,784.257935 635.424072,784.378662 635.266052,784.375366 
	C632.172363,784.311829 629.077271,784.138672 625.985718,784.188965 
	C621.703918,784.258789 617.200500,783.818054 613.294495,785.112488 
	C612.253967,785.457336 613.046387,791.336853 613.000122,794.675293 
	C612.993164,795.174866 612.857666,795.731812 613.029114,796.164124 
	C613.673889,797.790466 614.009766,799.839783 615.201172,800.896729 
	C620.309448,805.428528 620.259155,805.156250 615.209045,809.653137 
	C613.880554,810.836060 613.606628,813.348450 613.225037,815.323181 
	C613.151855,815.701965 615.032776,817.058105 615.681152,816.862976 
	C617.554382,816.299377 619.486694,815.440735 620.955444,814.183411 
	C622.079895,813.220947 622.534851,811.476257 623.287659,810.079529 
	C623.792969,809.833984 624.298279,809.588379 624.803650,809.342834 
	C626.144531,815.928162 630.236877,819.792969 636.991882,821.396851 
	C632.909180,825.270813 626.725098,826.149658 629.619141,832.386658 
	C636.100098,835.466675 636.930969,828.902771 640.580933,825.020996 
	C642.060852,828.538147 642.551331,831.677063 644.367798,833.480713 
	C646.288452,835.387878 649.471680,836.023682 652.701782,837.485718 
	C649.100342,841.317932 642.422729,842.198364 645.665100,848.430969 
	C652.196777,851.250305 652.876099,844.919434 656.464233,841.087524 
	C658.906921,846.048645 660.969910,850.238647 662.965881,854.292542 
	C663.797852,853.758545 664.752502,853.145813 665.707092,852.533081 
	C665.993225,853.224304 666.724670,854.165771 666.498108,854.568787 
	C663.556946,859.802124 667.357727,860.833618 671.125488,862.706604 
	C671.766235,863.118835 672.460938,863.951965 673.039185,863.877808 
	C678.355347,863.195374 680.324707,867.878418 684.515076,869.854187 
	C680.932617,873.266846 674.728760,874.129822 677.617493,880.389404 
	C684.088318,883.465027 684.930786,876.913208 688.896912,872.671936 
	C689.994751,880.213257 694.593384,883.429443 701.219604,885.520691 
	C696.777100,889.145142 690.656067,890.335571 693.621216,896.419189 
	C700.208008,899.251038 700.874451,892.893494 704.293762,889.285461 
	C705.425171,891.398376 706.020386,893.013550 707.039734,894.290100 
	C708.405457,896.000488 710.052795,897.499268 711.669739,898.990784 
	C712.659058,899.903198 714.578918,900.537415 714.694031,901.468079 
	C714.816772,902.460388 713.543579,904.093445 712.463440,904.680115 
	C709.042114,906.538391 708.261536,909.056641 709.471619,912.282288 
	C716.235168,915.559204 716.882629,908.693787 720.856079,904.909241 
	C721.934753,907.824524 723.202332,909.715271 723.255493,911.639587 
	C723.641174,925.596985 723.839233,939.560547 723.980469,953.523376 
	C724.080872,963.442871 724.005981,973.364075 723.998108,983.284546 
	C723.991943,990.961121 726.331482,993.633789 733.873352,993.953735 
	C739.030334,994.172485 744.207825,993.877441 749.368835,994.041382 
	C752.824219,994.151123 754.810425,992.635376 755.302246,989.356384 
	C755.987488,984.787415 756.882446,980.188232 756.924072,975.595032 
	C757.102417,955.931702 757.022339,936.265869 756.978638,916.601074 
	C756.971558,913.416687 760.160583,908.570435 754.413696,908.981323 
	C755.299683,905.951111 755.958191,902.908386 757.127930,900.076904 
	C757.614441,898.899292 759.223022,897.333252 760.267761,897.372437 
	C768.862732,897.694885 773.407959,893.954041 773.935303,885.294678 
	C774.101562,882.565125 775.254211,882.050720 777.644897,881.953003 
	C784.812683,881.659973 789.764343,876.804688 789.940125,869.803894 
	C790.008301,867.088257 790.751404,866.018127 793.638306,865.931030 
	C800.817871,865.714355 805.765381,860.808411 805.940491,853.810364 
	C806.008301,851.101624 806.738037,850.018738 809.631775,849.930725 
	C816.822327,849.711731 821.766418,844.812256 821.940918,837.816833 
	C822.008362,835.115173 822.727539,833.564941 825.624146,834.023315 
	C829.984741,834.713318 833.105347,832.422241 834.978577,829.157043 
	C836.978088,825.671387 837.920166,821.579163 839.474487,817.341064 
	C841.821228,817.017822 845.035950,815.842834 847.971802,816.334106 
	C852.974731,817.171204 853.826721,814.496704 853.966248,810.787903 
	C854.110229,806.960327 854.000854,803.123169 853.999695,799.290161 
	C853.997620,792.322266 845.640015,786.057556 839.026489,788.185486 
	C835.239197,789.404053 831.542419,790.903931 827.237427,792.485718 
	C827.240479,792.464722 826.975464,793.274231 827.036255,794.058594 
	C827.314941,797.656433 826.733887,800.265076 822.145996,800.208923 
	C818.348999,800.162415 814.545654,800.923767 810.743225,800.942505 
	C806.773743,800.962097 804.755493,802.546753 805.010681,806.603882 
	C805.124695,808.417419 805.187866,810.255737 805.544189,812.028564 
	C806.819885,818.376770 803.645508,822.667236 797.300415,823.060486 
	C796.677551,823.099121 796.070068,823.385986 795.141174,823.645386 
	C795.154236,827.777283 795.598938,832.218445 789.778076,832.975525 
	C789.082397,833.066040 788.760132,834.958740 787.982300,835.731934 
	C786.759644,836.946960 785.428711,838.213623 783.894165,838.903870 
	C782.646362,839.465149 781.032593,839.212830 779.300842,839.342285 
	C778.891296,843.454407 779.900818,848.278442 773.909058,848.906311 
	C773.398438,848.959839 772.791748,850.160522 772.606201,850.920227 
	C771.343872,856.087097 768.011475,855.457581 764.210999,854.282471 
	C764.417603,852.553589 764.587341,851.133545 764.744995,849.814148 
	C764.232117,849.507751 763.969177,849.236450 763.670776,849.189331 
	C757.505676,848.216675 755.927673,845.737549 757.398193,837.080872 
	C758.250488,832.064148 762.330383,832.934570 766.156616,833.445923 
	C768.231750,833.723328 770.462036,832.839905 772.041016,832.576965 
	C772.041016,828.714722 771.371643,825.564758 772.185425,822.861145 
	C773.707031,817.806152 772.752075,814.800415 767.000000,814.254272 
	C767.000000,809.437317 766.781189,804.935059 767.057190,800.463318 
	C767.378845,795.252197 767.386658,790.548218 760.417969,790.136414 
	C760.354248,790.132690 760.325562,789.536133 760.291626,789.214783 
	C763.789673,787.609009 763.789673,787.609009 771.764526,793.769592 
	C774.229248,788.716858 773.505920,786.794128 768.516663,785.985901 
	C766.325012,785.630859 764.026062,785.773499 761.788452,785.904602 
	C758.418762,786.102051 754.812561,781.838623 755.648743,778.840515 
	C756.053833,777.387939 756.211121,774.933838 755.408142,774.307190 
	C754.347473,773.479248 752.219849,773.834961 750.576660,773.978210 
	C747.893250,774.212097 745.230652,774.685303 742.559326,775.057556 
	C742.427368,774.311951 742.295410,773.566345 742.163513,772.820740 
	C744.388428,772.213013 746.580566,771.391113 748.845459,771.044800 
	C752.856812,770.431458 756.309570,769.790405 756.217468,764.338013 
	C756.192810,762.876160 758.389465,760.546875 760.004639,760.055054 
	C763.696838,758.930908 765.577515,756.827087 766.638733,752.995850 
	C767.074707,752.954712 767.510620,752.913635 768.493652,753.502075 
	C775.034912,753.668030 781.585938,754.121582 788.114136,753.901245 
	C792.639343,753.748474 797.132874,752.665588 801.640991,752.001038 
	C807.913635,751.076294 814.186707,750.154114 820.479187,749.227966 
	C822.451843,738.512634 822.452087,738.672058 834.153442,738.656250 
	C835.775635,738.654053 837.450562,736.229126 838.997192,734.812256 
	C840.244324,733.669800 841.270508,731.448486 842.511719,731.360840 
	C843.892273,731.263245 845.466858,732.960693 846.840637,734.026489 
	C847.896423,734.845703 848.771912,735.897278 849.727600,736.845459 
	C850.574951,735.749268 851.730713,734.772034 852.208740,733.533325 
	C853.385986,730.482788 854.251831,727.312134 855.043030,724.819458 
	C857.283203,725.940918 858.931946,726.766357 860.580811,727.591736 
	C860.720093,725.902649 860.859375,724.213623 861.027344,722.176819 
	C861.785950,722.258362 863.004700,722.737915 863.959106,722.421082 
	C866.089050,721.713745 869.383301,721.057373 869.893921,719.581299 
	C871.383484,715.275940 874.125854,714.512085 877.916199,715.010315 
	C881.813782,715.522522 884.305481,714.212219 885.139648,710.103943 
	C885.751892,707.088745 887.679199,705.867981 890.911926,705.853943 
	C892.560608,705.846741 895.693726,703.772949 895.629211,703.605408 
	C894.162659,699.793762 896.186401,698.592773 899.317688,697.582458 
	C900.140686,697.317017 900.880554,695.471985 900.914673,694.330139 
	C901.019287,690.825928 902.256470,689.758118 905.923767,690.319885 
	C909.085999,690.804199 912.464783,690.260681 915.681213,689.751343 
	C916.556030,689.612854 917.826904,687.954590 917.826233,686.994568 
	C917.823059,682.510010 917.438660,678.025818 917.339050,673.351379 
	C917.339050,673.351379 917.533325,673.208435 918.400757,673.697144 
z"/>
<path fill="#328E6E" opacity="1.000000" stroke="none" 
	d="
M767.946594,752.872559 
	C767.510620,752.913635 767.074707,752.954712 765.924805,753.016113 
	C762.473572,753.741455 759.736206,754.446594 756.553833,755.077148 
	C753.406372,755.063049 750.703979,755.123596 747.604858,755.112061 
	C746.137817,755.089050 745.067383,755.138184 743.609314,755.115723 
	C740.411926,755.359924 737.173889,757.612610 735.127258,752.970154 
	C737.912598,751.575073 740.664795,750.228027 743.389099,748.826782 
	C755.536133,742.578613 766.950867,735.275452 776.975098,725.402344 
	C778.122131,724.504456 779.215698,723.969727 779.875793,723.104248 
	C788.813965,711.386353 798.315308,700.033691 806.413330,687.756897 
	C814.872681,674.932373 821.368591,660.867371 824.935669,645.825623 
	C827.304138,635.838318 829.184204,625.600403 829.857666,615.380737 
	C830.658386,603.230408 831.543884,590.698853 829.479858,578.839355 
	C826.559692,562.060547 822.080322,545.321533 812.835999,530.543091 
	C805.561401,518.913513 798.902405,506.701355 790.211670,496.203644 
	C778.489563,482.044159 765.186035,469.178619 752.340942,455.971985 
	C747.511536,451.006683 742.086731,446.617371 736.897278,442.006134 
	C727.397156,433.564667 717.346741,425.662964 708.505981,416.581970 
	C700.163452,408.012878 692.823853,398.415344 685.497070,388.919830 
	C667.920044,366.139862 662.520203,340.442902 668.997070,312.544983 
	C671.003845,303.901215 674.127441,295.284271 678.195923,287.407196 
	C684.003235,276.163696 690.701843,265.303528 697.878235,254.870071 
	C703.044739,247.358643 709.796570,240.958237 715.517212,233.803177 
	C729.523132,216.285645 747.075195,203.728500 767.880188,195.567932 
	C776.064392,192.357758 784.230530,189.101624 792.404968,185.866425 
	C789.478516,185.197678 786.881836,185.480087 784.326355,185.975067 
	C771.045044,188.547501 757.404602,189.996155 744.575317,194.022476 
	C716.209290,202.924820 690.439941,217.009369 668.842529,237.782974 
	C653.185059,252.843185 638.312195,268.232941 629.122131,288.841339 
	C617.468262,314.974640 607.720398,341.075378 612.137329,370.209198 
	C613.442688,378.818970 615.940186,387.401947 619.068726,395.544830 
	C623.627686,407.410858 630.878784,417.877411 639.631470,427.066376 
	C653.905579,442.052032 668.574768,456.660919 683.037170,471.467926 
	C697.269531,486.039429 712.903198,499.530701 725.334167,515.509216 
	C746.788147,543.085693 762.689514,573.986023 773.846558,607.343689 
	C780.693665,627.815613 782.247620,648.436279 778.914795,669.431885 
	C775.515381,690.846985 766.928894,710.111206 752.022705,726.594910 
	C749.827759,728.836365 747.875183,730.876099 745.571777,732.955566 
	C737.986084,738.318909 730.364990,743.201843 723.634827,749.101318 
	C717.930054,754.101868 711.868103,755.929016 704.639282,754.961731 
	C702.530273,754.679504 700.434631,754.298279 698.327087,754.003784 
	C689.889282,752.825073 681.388000,751.989319 673.022522,750.426147 
	C655.354919,747.124634 638.255920,741.890198 621.574402,735.101440 
	C604.403259,728.113464 588.158569,719.404297 572.843323,709.122681 
	C554.951660,697.111511 538.649658,682.979309 524.501892,666.739624 
	C514.293640,655.021973 504.290344,642.827271 496.251526,629.596252 
	C486.895294,614.196899 478.983551,597.772522 471.957001,581.153687 
	C466.729767,568.790527 462.983276,555.600220 460.272736,542.429382 
	C457.439026,528.660095 455.707336,514.508362 455.179443,500.460419 
	C454.548981,483.681152 454.818970,466.751617 456.381622,450.044556 
	C457.559021,437.456360 461.120911,425.052429 464.091858,412.679443 
	C469.120544,391.736755 475.229065,371.081329 484.822266,351.721436 
	C498.393646,324.333160 513.036743,297.497162 530.058411,272.080444 
	C540.695496,256.197266 551.314392,240.172745 563.451172,225.456711 
	C577.751465,208.117264 593.476929,191.927353 608.974365,175.609329 
	C620.903992,163.047974 633.133240,150.735229 645.778137,138.898224 
	C661.324951,124.344681 677.434021,110.391312 693.316162,96.196526 
	C702.429138,88.051765 711.486633,79.839684 720.807129,71.938713 
	C722.071045,70.867294 725.427307,70.500542 726.620544,71.397011 
	C734.101013,77.016891 741.222229,83.113022 748.500793,89.003883 
	C765.987976,103.156921 783.670776,117.074806 800.935364,131.493851 
	C812.577271,141.216980 823.975769,151.286774 834.866821,161.837646 
	C845.292419,171.937531 855.089661,182.707047 864.846680,193.469055 
	C872.248840,201.633514 879.435181,210.029510 886.205261,218.721481 
	C893.642578,228.269928 900.678040,238.147644 907.558533,248.109879 
	C919.818176,265.860657 932.109131,283.601135 943.864807,301.685394 
	C955.281555,319.248169 964.418091,338.040588 972.192932,357.515259 
	C978.080078,372.261505 982.862122,387.269653 984.987671,403.045227 
	C986.388672,413.443451 987.810181,423.839996 989.076294,434.255066 
	C990.462708,445.659790 992.418030,457.059540 992.813843,468.506805 
	C993.562378,490.154388 993.798035,511.886688 988.944336,533.207458 
	C985.983521,546.213135 982.449524,559.088318 979.081787,572.394287 
	C965.914856,610.781006 945.022339,644.012817 917.533325,673.208435 
	C917.533325,673.208435 917.339050,673.351379 917.018433,673.615479 
	C899.363831,691.050293 880.449036,706.069580 859.332886,718.498779 
	C838.921448,730.513367 817.311768,739.340088 794.685913,745.900940 
	C785.842590,748.465332 776.863708,750.562622 767.946594,752.872559 
z"/>
<path fill="#FFFFFF" opacity="1.000000" stroke="none" 
	d="
M979.172974,572.022156 
	C982.449524,559.088318 985.983521,546.213135 988.944336,533.207458 
	C993.798035,511.886688 993.562378,490.154388 992.813843,468.506805 
	C992.418030,457.059540 990.462708,445.659790 989.076294,434.255066 
	C987.810181,423.839996 986.388672,413.443451 984.987671,403.045227 
	C982.862122,387.269653 978.080078,372.261505 972.192932,357.515259 
	C964.418091,338.040588 955.281555,319.248169 943.864807,301.685394 
	C932.109131,283.601135 919.818176,265.860657 907.558533,248.109879 
	C900.678040,238.147644 893.642578,228.269928 886.205261,218.721481 
	C879.435181,210.029510 872.248840,201.633514 864.846680,193.469055 
	C855.089661,182.707047 845.292419,171.937531 834.866821,161.837646 
	C823.975769,151.286774 812.577271,141.216980 800.935364,131.493851 
	C783.670776,117.074806 765.987976,103.156921 748.500793,89.003883 
	C741.222229,83.113022 734.101013,77.016891 726.620544,71.397011 
	C725.427307,70.500542 722.071045,70.867294 720.807129,71.938713 
	C711.486633,79.839684 702.429138,88.051765 693.316162,96.196526 
	C677.434021,110.391312 661.324951,124.344681 645.778137,138.898224 
	C633.133240,150.735229 620.903992,163.047974 608.974365,175.609329 
	C593.476929,191.927353 577.751465,208.117264 563.451172,225.456711 
	C551.314392,240.172745 540.695496,256.197266 530.058411,272.080444 
	C513.036743,297.497162 498.393646,324.333160 484.822266,351.721436 
	C475.229065,371.081329 469.120544,391.736755 464.091858,412.679443 
	C461.120911,425.052429 457.559021,437.456360 456.381622,450.044556 
	C454.818970,466.751617 454.548981,483.681152 455.179443,500.460419 
	C455.707336,514.508362 457.439026,528.660095 460.272736,542.429382 
	C462.983276,555.600220 466.729767,568.790527 471.957001,581.153687 
	C478.983551,597.772522 486.895294,614.196899 496.251526,629.596252 
	C504.290344,642.827271 514.293640,655.021973 524.501892,666.739624 
	C538.649658,682.979309 554.951660,697.111511 572.843323,709.122681 
	C588.158569,719.404297 604.403259,728.113464 621.574402,735.101440 
	C638.255920,741.890198 655.354919,747.124634 673.022522,750.426147 
	C681.388000,751.989319 689.889282,752.825073 698.327087,754.003784 
	C700.434631,754.298279 702.530273,754.679504 704.639282,754.961731 
	C711.868103,755.929016 717.930054,754.101868 723.634827,749.101318 
	C730.364990,743.201843 737.986084,738.318909 745.611511,732.998535 
	C746.002136,733.001831 746.081970,733.087402 746.008484,733.455994 
	C745.968872,735.663574 745.505615,738.873047 746.125061,739.097839 
	C748.464294,739.946350 751.155212,739.825378 753.671997,740.063293 
	C753.985352,737.001953 754.176758,735.132263 754.368103,733.262512 
	C754.782715,733.740784 755.197327,734.219116 755.611877,734.697388 
	C759.021484,733.350952 762.517761,732.185913 765.816956,730.608521 
	C769.306030,728.940491 772.607422,726.879883 776.163513,725.157349 
	C776.336243,725.323853 776.720093,725.611755 776.720093,725.611755 
	C766.950867,735.275452 755.536133,742.578613 743.389099,748.826782 
	C740.664795,750.228027 737.912598,751.575073 735.127258,752.970154 
	C737.173889,757.612610 740.411926,755.359924 743.539368,755.457886 
	C741.645142,756.915161 739.412170,757.917053 737.230103,759.019592 
	C736.106628,759.587219 735.073792,760.334106 734.000000,761.000000 
	C731.563721,759.024292 729.127441,757.048645 726.309753,754.695923 
	C725.350891,753.669495 724.773499,753.020081 724.196106,752.370667 
	C723.797363,753.247070 723.398682,754.123535 723.000000,755.000000 
	C720.909912,756.663879 718.819885,758.327820 715.946472,759.995850 
	C713.108704,760.333313 711.054382,760.666687 709.000000,761.000000 
	C706.958313,761.000000 704.916687,761.000000 702.370483,760.639526 
	C699.950500,758.538574 698.199341,757.906982 697.000000,761.000000 
	C695.227112,760.355042 692.641357,760.221863 691.847168,758.960632 
	C690.085571,756.162903 687.828125,756.105896 685.065430,755.931519 
	C678.638428,755.525879 672.245178,754.523926 665.816833,754.224609 
	C661.885254,754.041565 657.888977,755.104858 653.969543,754.855896 
	C651.533203,754.701111 649.212036,753.064209 646.790466,752.234924 
	C645.015564,751.627075 643.165405,750.898865 641.341248,750.877563 
	C639.759216,750.859070 638.169189,751.767334 636.577942,752.250305 
	C629.493286,754.400513 626.311340,751.846191 627.391846,744.491577 
	C627.881165,741.161194 626.177856,740.448608 623.647522,740.007446 
	C621.212036,739.582825 618.803467,738.930481 616.352417,738.687073 
	C613.171631,738.371277 609.960999,738.282776 606.762085,738.261414 
	C605.636658,738.253845 604.519592,738.872559 603.378906,738.967102 
	C595.992188,739.579346 594.995728,738.272278 597.650146,731.347473 
	C597.164062,730.993103 596.634155,730.273193 596.122009,730.285645 
	C591.550293,730.396912 588.201294,729.718079 586.588623,724.183167 
	C585.934631,721.938538 581.281067,720.759399 578.342468,719.308167 
	C575.338562,717.824707 572.406677,717.356812 569.762146,720.380066 
	C569.212708,721.008179 567.523193,720.639160 565.484192,720.797791 
	C566.672974,718.666199 567.342102,717.466370 567.408691,717.346924 
	C565.957397,713.996338 565.538330,710.744507 563.704834,709.343445 
	C561.103271,707.355225 557.534912,706.406982 554.234253,705.643616 
	C552.257080,705.186401 550.002441,705.928955 547.872559,706.132202 
	C548.181213,704.025208 548.502136,701.919800 548.785278,699.809387 
	C548.826721,699.500610 548.688232,699.167725 548.584595,698.563843 
	C544.760742,697.356323 539.134583,698.114990 539.614807,691.575256 
	C530.343079,690.057373 530.343079,690.057373 531.477051,682.881042 
	C529.239746,680.801514 527.161621,678.685425 524.874695,676.825989 
	C523.811768,675.961670 522.282837,674.989380 521.069275,675.110352 
	C516.088684,675.606995 514.384033,673.432861 514.966064,668.734924 
	C515.125183,667.450500 514.870789,666.114868 514.782532,664.322021 
	C513.639099,664.755005 512.836609,665.244873 511.992950,665.330933 
	C510.955383,665.436768 509.489807,665.585999 508.936829,665.013550 
	C508.382019,664.439209 508.256805,662.651489 508.746796,661.997498 
	C511.638367,658.138123 508.849060,656.772400 505.968689,655.143555 
	C505.426392,655.489136 504.922882,655.923889 504.338959,656.157715 
	C503.241150,656.597229 502.096954,656.920959 500.972046,657.292847 
	C500.922852,656.105713 501.099426,654.854431 500.783966,653.742798 
	C499.641205,649.716370 498.692932,645.551758 496.806244,641.884277 
	C496.392548,641.080139 492.247589,641.633728 490.115204,642.390808 
	C485.469482,644.040283 482.423889,642.549194 482.072357,637.693420 
	C481.931335,635.745239 481.951294,633.571716 482.666534,631.813354 
	C485.253815,625.452820 483.621399,619.268860 481.667603,613.362000 
	C480.936096,611.150574 477.665863,609.778870 475.663849,608.116272 
	C474.842041,608.388123 474.383484,608.544983 473.921661,608.691711 
	C472.036011,609.290649 470.149384,609.886475 468.263123,610.483521 
	C467.589478,608.214600 466.292358,605.923950 466.370361,603.681152 
	C466.539490,598.819458 467.800934,593.986633 467.855133,589.133484 
	C467.889221,586.084717 466.800751,582.918884 465.658264,580.025757 
	C465.319153,579.167053 463.002045,578.499207 461.735931,578.692322 
	C453.268158,579.983643 450.927643,577.637207 452.982391,569.389771 
	C453.763489,566.254578 454.356537,563.596863 451.698792,560.664185 
	C450.552948,559.399841 451.557251,556.183533 451.591248,553.854065 
	C451.627594,551.363281 451.761658,548.870056 451.692871,546.382385 
	C451.563232,541.689880 451.293976,537.001404 451.128082,532.309692 
	C450.913910,526.251099 450.773193,520.189758 450.537628,514.132080 
	C450.467163,512.319824 450.030182,510.516327 450.024536,508.707947 
	C449.980194,494.541565 449.896393,480.373749 450.069427,466.209320 
	C450.115387,462.449799 451.031464,458.703186 451.504578,454.945190 
	C451.646271,453.819794 452.077606,452.450623 451.628143,451.578827 
	C449.505005,447.460571 450.992981,443.612274 451.795166,439.550415 
	C452.297028,437.009308 451.395142,434.218597 451.350494,431.536102 
	C451.261292,426.174225 451.269806,420.808441 451.387360,415.447571 
	C451.407471,414.531250 452.714050,413.474152 452.504669,412.747742 
	C450.257690,404.951385 455.533386,399.324524 458.067749,392.926300 
	C458.460480,391.934784 459.308838,390.305298 459.888092,390.330200 
	C467.322815,390.649506 466.824249,384.914581 467.992432,380.241638 
	C469.997223,372.222015 472.222198,364.256744 474.430359,356.289612 
	C474.685669,355.368439 475.222778,354.302032 475.964478,353.773010 
	C485.223267,347.168854 485.079468,338.007904 483.032166,328.301056 
	C482.725006,326.844696 482.136047,325.399811 482.109558,323.941742 
	C482.046204,320.451172 484.616821,318.386902 487.523956,319.374298 
	C494.353455,321.693878 499.460907,318.184937 499.905609,310.563385 
	C500.036469,308.320404 498.689148,305.968445 498.916534,303.758789 
	C499.304779,299.986053 499.511902,295.684235 501.493988,292.753662 
	C502.976105,290.562317 507.086639,290.047119 510.106628,289.020569 
	C515.035339,287.345215 517.231079,281.928284 515.733459,276.875061 
	C514.579407,272.981140 514.029541,268.711700 514.294189,264.680359 
	C514.418396,262.788849 516.801208,260.246887 518.720093,259.557495 
	C519.964844,259.110321 522.248962,261.435272 524.012756,262.600922 
	C525.009888,263.259949 525.983704,264.771271 526.810974,264.665863 
	C527.874695,264.530334 528.978821,263.301819 529.714905,262.289276 
	C531.441833,259.913818 533.258789,257.521271 534.452393,254.871292 
	C535.184998,253.244888 535.559814,249.856537 534.846436,249.449844 
	C531.278137,247.415497 529.697205,244.352814 531.906677,241.376801 
	C532.846558,240.110870 537.145447,241.338837 539.892090,242.025513 
	C545.700989,241.080963 547.190369,235.920990 549.324219,231.295441 
	C549.463257,230.994110 549.762085,230.592651 549.666870,230.382812 
	C547.667969,225.976028 546.574036,222.956390 553.667358,225.681107 
	C556.470154,226.757706 562.922852,215.769699 563.629333,212.746521 
	C564.907837,207.275589 560.541138,201.065689 566.181885,196.198227 
	C569.826477,193.053268 572.602478,188.245636 578.473572,193.364166 
	C578.747681,191.632080 578.951355,190.850616 578.984192,190.062027 
	C579.468628,178.429535 584.713074,173.503937 596.053162,175.225357 
	C599.982422,175.821793 600.757080,174.117813 602.316711,171.596222 
	C603.666626,169.413712 606.215881,167.993393 607.682617,165.856949 
	C609.145752,163.725647 610.039795,161.167435 610.967407,158.714737 
	C611.930115,156.169281 612.633911,153.525909 613.501343,150.765060 
	C620.181030,153.818237 620.314392,153.697937 620.117371,147.528610 
	C620.087952,146.606171 620.311951,145.370773 620.911682,144.783691 
	C624.201416,141.563080 627.644836,138.499420 631.232605,135.200607 
	C632.282959,135.977005 633.453369,136.842102 635.437256,138.308517 
	C636.091919,136.571701 637.339539,134.975723 637.042419,133.755936 
	C635.697876,128.234879 637.926941,125.492943 643.749939,127.296730 
	C649.499512,129.077805 651.195801,126.103096 653.159973,121.109734 
	C652.731323,120.914680 651.917664,120.796471 651.537781,120.327118 
	C650.041443,118.478195 647.388306,116.407356 647.542175,114.624062 
	C647.854919,110.999733 651.162781,109.697433 654.674316,110.056374 
	C658.602356,110.457916 662.501953,111.137886 667.000000,111.780411 
	C667.414978,110.396873 667.499939,108.812859 668.295776,107.772751 
	C669.421204,106.301865 670.892395,104.593903 672.537109,104.132576 
	C675.434326,103.319939 677.697083,102.966339 676.370056,98.967064 
	C676.116089,98.201614 678.613403,95.404785 679.525757,95.548538 
	C686.566528,96.657883 690.652405,93.003693 694.736755,86.629120 
	C693.968689,86.307076 692.660889,86.141640 692.499695,85.621117 
	C691.962952,83.888344 691.226929,81.791512 691.799988,80.311523 
	C692.109802,79.511375 695.570374,78.844360 696.497253,79.559311 
	C700.394531,82.565361 703.229797,79.760979 705.164429,77.629585 
	C706.872498,75.747833 707.088684,72.419701 707.708618,69.672684 
	C708.176697,67.598167 708.242371,65.432831 708.487061,63.307903 
	C710.574524,63.596992 712.675659,64.202736 714.746765,64.113441 
	C720.102356,63.882504 725.565002,63.905113 730.761963,62.788788 
	C737.346802,61.374355 744.885498,67.606522 743.864136,74.212761 
	C743.622437,75.776245 743.656006,78.541084 744.415527,78.888298 
	C746.923401,80.034760 749.801941,80.448036 752.577820,80.898888 
	C754.052734,81.138428 755.609314,80.874878 757.129028,80.838425 
	C757.013855,82.051750 757.044922,83.301239 756.755493,84.471451 
	C755.956482,87.701889 759.315186,93.728241 763.005371,94.378532 
	C767.780884,95.220062 772.417053,97.961395 777.709290,94.608536 
	C779.316895,93.590065 783.833984,95.317459 785.772522,97.124184 
	C788.335388,99.512726 786.314819,102.086166 783.924683,104.185295 
	C783.010925,104.987747 782.303772,107.617470 782.814087,108.144539 
	C784.224060,109.600769 786.315430,111.241707 788.156067,111.263985 
	C792.219604,111.313164 796.391602,109.915176 799.437927,113.204559 
	C798.663635,115.811737 797.998718,118.050423 797.333862,120.289116 
	C805.756714,116.843475 805.832642,116.900002 807.624756,128.053909 
	C810.256592,127.787445 812.967529,127.268456 815.666443,127.325127 
	C817.486084,127.363327 819.768433,127.726227 820.932251,128.870758 
	C821.723511,129.648895 820.718628,132.056152 820.903259,133.691284 
	C821.239990,136.673279 821.541504,139.748840 822.613464,142.489822 
	C822.855530,143.108902 826.316162,142.926025 828.087891,142.406021 
	C833.791077,140.732162 838.012146,143.680496 838.000977,149.619781 
	C837.994873,152.854416 837.999939,156.089081 837.999939,160.000000 
	C841.612000,160.000000 844.727722,159.991974 847.843445,160.001663 
	C854.444275,160.022186 857.228882,163.591766 855.546509,169.864182 
	C853.900208,176.002243 853.900208,176.002213 859.864075,174.560074 
	C864.908875,173.340164 872.653625,181.252609 871.358521,186.318390 
	C871.034912,187.584457 870.633301,188.830582 870.106506,190.638168 
	C873.447693,191.121582 876.529358,191.382538 879.510681,192.075287 
	C881.046509,192.432144 882.403809,193.557526 883.841736,194.335632 
	C882.519287,195.236481 881.210571,196.158707 879.865967,197.025177 
	C879.466248,197.282776 878.965698,197.383926 878.524597,197.551743 
	C880.130432,206.516937 882.682922,208.358185 891.625732,207.068710 
	C900.593323,205.775650 904.067871,209.517303 902.832520,218.369217 
	C902.234619,222.653397 902.729309,227.090057 902.733887,231.457520 
	C909.432434,232.606705 909.432434,232.606705 910.567444,239.638321 
	C911.450806,239.558441 912.383423,239.307388 913.264465,239.429153 
	C915.090332,239.681549 917.389526,239.599884 918.533569,240.676392 
	C919.385315,241.477844 918.735413,243.884125 918.739380,245.575684 
	C918.746155,248.462723 918.741211,251.349792 918.741211,254.724045 
	C921.169067,254.842987 922.978882,254.734116 924.706665,255.060211 
	C927.677673,255.620911 930.510315,255.916290 929.515015,260.689758 
	C929.061890,262.862854 931.625549,265.593597 932.593750,268.157196 
	C933.355347,270.173828 933.674011,272.353851 934.363586,274.402710 
	C935.015991,276.341095 935.568909,278.443298 936.747742,280.045074 
	C938.760803,282.780334 941.229004,285.180664 944.050232,288.328888 
	C943.341248,288.521667 943.952759,288.226044 944.570984,288.211243 
	C946.532898,288.164215 948.497314,288.221954 950.460754,288.239197 
	C950.163696,290.385040 950.398254,292.808594 949.453918,294.616272 
	C947.729980,297.915894 949.559692,302.770538 953.049744,304.085632 
	C955.299255,304.933167 957.158691,306.815826 960.085571,308.857147 
	C965.993225,307.268555 967.550415,309.341339 966.543579,317.427521 
	C965.886047,322.708130 966.759094,328.235352 967.409302,333.595947 
	C967.678467,335.814850 969.260315,337.477936 972.149841,336.189819 
	C973.136475,335.750000 974.449341,336.012390 975.613464,336.004974 
	C981.940247,335.964691 981.896606,336.009369 982.039185,342.435944 
	C982.097473,345.065826 982.740173,347.679718 982.850647,350.312103 
	C983.028625,354.548920 983.775085,358.975525 982.855835,362.995972 
	C981.378540,369.457397 982.773804,375.450500 984.257446,381.491272 
	C984.480835,382.400909 986.973022,383.459900 988.256653,383.284760 
	C995.205017,382.336578 997.736084,384.492554 998.046875,391.477844 
	C998.451721,400.575806 997.072815,409.216888 993.933044,417.834412 
	C992.963196,420.496185 994.620605,424.677429 996.190002,427.554779 
	C998.005737,430.883636 999.717773,433.679993 998.246216,437.674957 
	C997.356201,440.091064 996.968933,442.863190 997.078979,445.444489 
	C997.397827,452.918732 998.665344,460.152985 997.683655,467.908051 
	C996.372986,478.262726 997.922607,488.958435 997.921082,499.507629 
	C997.920105,506.131226 996.360107,512.890991 997.268555,519.340454 
	C998.199219,525.947205 995.889832,531.037048 993.311401,536.484558 
	C991.850830,539.570190 989.803101,543.185669 995.532104,544.472168 
	C995.935120,544.562683 996.311951,545.085754 996.561401,545.493103 
	C998.237366,548.229675 994.825623,561.796448 992.060547,563.464050 
	C991.491028,563.807495 990.470642,564.025024 990.382751,564.450378 
	C989.383240,569.285339 984.627380,570.045532 981.072876,572.748169 
	C980.069092,572.546326 979.621033,572.284241 979.172974,572.022156 
M739.758179,747.288330 
	C740.806519,745.855530 741.854858,744.422729 743.525024,742.140137 
	C741.378967,741.775269 739.570984,740.863159 738.617737,741.418335 
	C735.669556,743.135742 732.925842,745.276855 730.377380,747.560059 
	C729.682495,748.182617 729.955444,749.885498 729.784241,751.092590 
	C731.159851,751.203003 732.739929,751.794861 733.865723,751.316833 
	C735.806030,750.493164 737.463806,749.003845 739.758179,747.288330 
M975.020020,347.505249 
	C975.337646,348.189697 975.655273,348.874146 975.972900,349.558563 
	C976.328674,349.455048 976.684387,349.351532 977.040100,349.248016 
	C976.747314,348.021301 976.454529,346.794617 976.161743,345.567902 
	C975.790405,345.976105 975.419128,346.384338 975.020020,347.505249 
M891.528503,214.314758 
	C890.980164,213.975311 890.431824,213.635849 889.883545,213.296417 
	C889.748352,213.571259 889.613159,213.846115 889.477905,214.120956 
	C890.014893,214.326416 890.551819,214.531891 891.528503,214.314758 
M895.390320,220.202576 
	C895.785339,220.206772 896.180359,220.210968 896.575378,220.215164 
	C896.576904,220.051254 896.589417,219.744888 896.578308,219.744034 
	C896.185303,219.713715 895.790039,219.712051 895.390320,220.202576 
z"/>
<path fill="#FFFEFF" opacity="1.000000" stroke="none" 
	d="
M734.169067,761.318115 
	C735.073792,760.334106 736.106628,759.587219 737.230103,759.019592 
	C739.412170,757.917053 741.645142,756.915161 743.927002,755.529419 
	C745.067383,755.138184 746.137817,755.089050 747.681641,755.456238 
	C751.283813,757.851868 754.415527,759.865723 756.998901,755.151733 
	C759.736206,754.446594 762.473572,753.741455 765.605591,753.094238 
	C765.577515,756.827087 763.696838,758.930908 760.004639,760.055054 
	C758.389465,760.546875 756.192810,762.876160 756.217468,764.338013 
	C756.309570,769.790405 752.856812,770.431458 748.845459,771.044800 
	C746.580566,771.391113 744.388428,772.213013 742.163513,772.820740 
	C742.295410,773.566345 742.427368,774.311951 742.559326,775.057556 
	C745.230652,774.685303 747.893250,774.212097 750.576660,773.978210 
	C752.219849,773.834961 754.347473,773.479248 755.408142,774.307190 
	C756.211121,774.933838 756.053833,777.387939 755.648743,778.840515 
	C754.812561,781.838623 758.418762,786.102051 761.788452,785.904602 
	C764.026062,785.773499 766.325012,785.630859 768.516663,785.985901 
	C773.505920,786.794128 774.229248,788.716858 771.764526,793.769592 
	C763.789673,787.609009 763.789673,787.609009 760.286072,789.215576 
	C760.325562,789.536133 760.354248,790.132690 760.417969,790.136414 
	C767.386658,790.548218 767.378845,795.252197 767.057190,800.463318 
	C766.781189,804.935059 767.000000,809.437317 767.000000,814.254272 
	C772.752075,814.800415 773.707031,817.806152 772.185425,822.861145 
	C771.371643,825.564758 772.041016,828.714722 772.041016,832.576965 
	C770.462036,832.839905 768.231750,833.723328 766.156616,833.445923 
	C762.330383,832.934570 758.250488,832.064148 757.398193,837.080872 
	C755.927673,845.737549 757.505676,848.216675 763.670776,849.189331 
	C763.969177,849.236450 764.232117,849.507751 764.744995,849.814148 
	C764.587341,851.133545 764.417603,852.553589 764.210999,854.282471 
	C768.011475,855.457581 771.343872,856.087097 772.606201,850.920227 
	C772.791748,850.160522 773.398438,848.959839 773.909058,848.906311 
	C779.900818,848.278442 778.891296,843.454407 779.300842,839.342285 
	C781.032593,839.212830 782.646362,839.465149 783.894165,838.903870 
	C785.428711,838.213623 786.759644,836.946960 787.982300,835.731934 
	C788.760132,834.958740 789.082397,833.066040 789.778076,832.975525 
	C795.598938,832.218445 795.154236,827.777283 795.141174,823.645386 
	C796.070068,823.385986 796.677551,823.099121 797.300415,823.060486 
	C803.645508,822.667236 806.819885,818.376770 805.544189,812.028564 
	C805.187866,810.255737 805.124695,808.417419 805.010681,806.603882 
	C804.755493,802.546753 806.773743,800.962097 810.743225,800.942505 
	C814.545654,800.923767 818.348999,800.162415 822.145996,800.208923 
	C826.733887,800.265076 827.314941,797.656433 827.036255,794.058594 
	C826.975464,793.274231 827.240479,792.464722 827.237427,792.485718 
	C831.542419,790.903931 835.239197,789.404053 839.026489,788.185486 
	C845.640015,786.057556 853.997620,792.322266 853.999695,799.290161 
	C854.000854,803.123169 854.110229,806.960327 853.966248,810.787903 
	C853.826721,814.496704 852.974731,817.171204 847.971802,816.334106 
	C845.035950,815.842834 841.821228,817.017822 839.474487,817.341064 
	C837.920166,821.579163 836.978088,825.671387 834.978577,829.157043 
	C833.105347,832.422241 829.984741,834.713318 825.624146,834.023315 
	C822.727539,833.564941 822.008362,835.115173 821.940918,837.816833 
	C821.766418,844.812256 816.822327,849.711731 809.631775,849.930725 
	C806.738037,850.018738 806.008301,851.101624 805.940491,853.810364 
	C805.765381,860.808411 800.817871,865.714355 793.638306,865.931030 
	C790.751404,866.018127 790.008301,867.088257 789.940125,869.803894 
	C789.764343,876.804688 784.812683,881.659973 777.644897,881.953003 
	C775.254211,882.050720 774.101562,882.565125 773.935303,885.294678 
	C773.407959,893.954041 768.862732,897.694885 760.267761,897.372437 
	C759.223022,897.333252 757.614441,898.899292 757.127930,900.076904 
	C755.958191,902.908386 755.299683,905.951111 754.413696,908.981323 
	C760.160583,908.570435 756.971558,913.416687 756.978638,916.601074 
	C757.022339,936.265869 757.102417,955.931702 756.924072,975.595032 
	C756.882446,980.188232 755.987488,984.787415 755.302246,989.356384 
	C754.810425,992.635376 752.824219,994.151123 749.368835,994.041382 
	C744.207825,993.877441 739.030334,994.172485 733.873352,993.953735 
	C726.331482,993.633789 723.991943,990.961121 723.998108,983.284546 
	C724.005981,973.364075 724.080872,963.442871 723.980469,953.523376 
	C723.839233,939.560547 723.641174,925.596985 723.255493,911.639587 
	C723.202332,909.715271 721.934753,907.824524 720.856079,904.909241 
	C716.882629,908.693787 716.235168,915.559204 709.471619,912.282288 
	C708.261536,909.056641 709.042114,906.538391 712.463440,904.680115 
	C713.543579,904.093445 714.816772,902.460388 714.694031,901.468079 
	C714.578918,900.537415 712.659058,899.903198 711.669739,898.990784 
	C710.052795,897.499268 708.405457,896.000488 707.039734,894.290100 
	C706.020386,893.013550 705.425171,891.398376 704.293762,889.285461 
	C700.874451,892.893494 700.208008,899.251038 693.621216,896.419189 
	C690.656067,890.335571 696.777100,889.145142 701.219604,885.520691 
	C694.593384,883.429443 689.994751,880.213257 688.896912,872.671936 
	C684.930786,876.913208 684.088318,883.465027 677.617493,880.389404 
	C674.728760,874.129822 680.932617,873.266846 684.515076,869.854187 
	C680.324707,867.878418 678.355347,863.195374 673.039185,863.877808 
	C672.460938,863.951965 671.766235,863.118835 671.409424,862.348022 
	C672.321106,861.511597 672.948792,861.033875 673.576477,860.556152 
	C673.129578,860.163574 672.682739,859.771057 672.235840,859.378479 
	C671.823914,860.252319 671.411926,861.126160 671.000000,862.000000 
	C667.357727,860.833618 663.556946,859.802124 666.498108,854.568787 
	C666.724670,854.165771 665.993225,853.224304 665.707092,852.533081 
	C664.752502,853.145813 663.797852,853.758545 662.965881,854.292542 
	C660.969910,850.238647 658.906921,846.048645 656.464233,841.087524 
	C652.876099,844.919434 652.196777,851.250305 645.665100,848.430969 
	C642.422729,842.198364 649.100342,841.317932 652.701782,837.485718 
	C649.471680,836.023682 646.288452,835.387878 644.367798,833.480713 
	C642.551331,831.677063 642.060852,828.538147 640.580933,825.020996 
	C636.930969,828.902771 636.100098,835.466675 629.619141,832.386658 
	C626.725098,826.149658 632.909180,825.270813 636.991882,821.396851 
	C630.236877,819.792969 626.144531,815.928162 624.803650,809.342834 
	C624.298279,809.588379 623.792969,809.833984 623.287659,810.079529 
	C622.534851,811.476257 622.079895,813.220947 620.955444,814.183411 
	C619.486694,815.440735 617.554382,816.299377 615.681152,816.862976 
	C615.032776,817.058105 613.151855,815.701965 613.225037,815.323181 
	C613.606628,813.348450 613.880554,810.836060 615.209045,809.653137 
	C620.259155,805.156250 620.309448,805.428528 615.201172,800.896729 
	C614.009766,799.839783 613.673889,797.790466 613.029114,796.164124 
	C612.857666,795.731812 612.993164,795.174866 613.000122,794.675293 
	C613.046387,791.336853 612.253967,785.457336 613.294495,785.112488 
	C617.200500,783.818054 621.703918,784.258789 625.985718,784.188965 
	C629.077271,784.138672 632.172363,784.311829 635.266052,784.375366 
	C635.424072,784.378662 635.581848,784.257935 635.743530,784.245667 
	C638.249268,784.056274 645.595581,792.089539 645.249268,794.633789 
	C644.714722,798.560730 647.569275,801.554382 651.463501,800.605164 
	C654.186096,799.941467 654.591125,801.328796 656.245422,802.952637 
	C659.831238,806.472656 662.783630,809.812622 662.824158,815.043701 
	C668.243591,814.741150 670.524902,819.830811 674.487000,821.709778 
	C677.484375,823.131165 678.256226,824.341187 677.820557,827.125183 
	C677.126953,831.557007 678.295959,833.011597 682.493286,832.238281 
	C685.540710,831.676758 687.347168,832.376343 687.961731,835.518738 
	C688.085388,836.151001 688.330017,837.279480 688.569275,837.293091 
	C694.368958,837.623047 693.168335,841.468872 693.654907,845.476990 
	C694.218018,850.115234 698.617493,849.158691 702.439697,847.929565 
	C703.241333,849.911621 703.963623,851.697388 704.806702,853.781921 
	C709.084106,853.412415 710.364807,855.723755 710.153992,859.863159 
	C710.087280,861.171509 711.779480,863.728333 712.673462,863.731323 
	C717.152588,863.746521 720.989990,864.068115 720.478088,871.132690 
	C721.273010,870.710693 722.067932,870.288696 722.862793,869.866699 
	C723.373474,863.235107 723.884094,856.603516 724.395935,849.956543 
	C721.001465,849.956543 718.379944,850.253723 715.856873,849.882080 
	C712.629822,849.406799 712.162720,847.187988 713.965881,844.811401 
	C718.420959,838.939514 718.148804,835.247131 711.869019,831.750000 
	C709.171326,830.247559 708.094543,828.919861 707.851318,825.847534 
	C707.390503,820.025940 703.536621,817.225403 697.893066,817.191345 
	C691.537170,817.153015 692.019348,812.894958 691.944519,808.569153 
	C691.870911,804.317322 692.216980,800.809082 697.760254,800.830444 
	C699.548645,800.837341 701.329712,800.145996 703.130676,800.028564 
	C707.641357,799.734436 709.599548,797.335144 708.805115,792.861694 
	C707.451843,785.241455 707.452820,785.268188 715.322632,784.984009 
	C718.100159,784.883728 720.871582,784.617554 723.858521,784.885498 
	C707.563843,793.506836 701.218140,815.323303 716.470337,829.974121 
	C719.987244,833.352417 724.786865,835.395325 729.059448,838.462891 
	C729.409363,840.828674 729.928345,842.782471 729.943970,844.740295 
	C730.026306,855.068542 729.943359,865.398071 730.018188,875.726440 
	C730.030884,877.486572 730.530762,879.243103 730.859497,881.331421 
	C730.868958,882.103943 730.824585,882.546448 730.546326,883.204468 
	C729.214172,884.286804 728.115906,885.153625 726.714355,885.873047 
	C706.865967,866.165405 687.321838,846.604004 667.775085,827.045227 
	C656.470459,815.733582 645.183716,804.403870 633.842773,793.128723 
	C629.595703,788.906311 624.366028,788.627136 621.317810,792.294556 
	C618.841309,795.274109 619.600891,798.814331 623.859741,803.089417 
	C637.618225,816.900208 651.409241,830.678711 665.211670,844.445557 
	C686.795044,865.973206 708.398193,887.481140 729.997620,909.282471 
	C730.266602,910.045349 730.530945,910.523193 730.844849,911.333618 
	C730.858459,912.111877 730.822571,912.557617 730.530273,913.327515 
	C730.187256,936.189148 730.094360,958.726562 730.050232,981.263977 
	C730.049072,981.840088 730.582947,982.417175 730.958862,983.365479 
	C731.738831,988.213867 735.371277,989.113892 738.703247,988.824158 
	C742.683044,988.478027 745.010803,985.766907 744.989868,981.345154 
	C744.883728,958.899780 744.868896,936.454041 744.886658,913.754272 
	C744.899658,913.333130 744.848145,913.166138 744.867432,912.629761 
	C744.902466,911.513794 744.866638,910.767273 744.897156,909.760498 
	C744.921387,909.326294 744.879272,909.152222 744.898438,908.616333 
	C745.780396,906.871277 746.360107,905.249023 747.458618,904.141296 
	C761.021606,890.462646 774.648865,876.847656 788.282410,863.239075 
	C807.208862,844.347229 826.262451,825.579773 844.920105,806.426392 
	C846.721558,804.577148 846.726440,800.300537 846.307007,797.328247 
	C846.157837,796.271240 842.311768,795.536316 840.067322,795.055420 
	C838.873901,794.799744 837.496765,795.401794 836.057617,795.293579 
	C830.318787,794.007080 830.574402,798.888977 828.781738,802.131653 
	C828.057434,802.899536 827.524353,803.450989 826.613708,804.025391 
	C823.050720,804.431396 821.746216,806.235535 822.063843,809.634705 
	C821.197632,810.569397 820.478394,811.245605 819.468506,811.892578 
	C815.441162,810.937195 815.363831,813.095642 815.742310,816.018066 
	C814.863281,816.927917 814.132507,817.583008 812.980835,818.180908 
	C812.075256,818.936096 811.590698,819.748535 810.989929,820.716187 
	C810.873779,820.871460 810.554626,821.091675 810.249268,820.825806 
	C807.647888,822.377563 805.140198,823.986816 803.101685,826.057861 
	C799.311890,829.908264 795.795654,834.027893 791.812866,838.083252 
	C789.282166,839.790894 786.768616,841.156555 784.999023,843.174561 
	C781.757019,846.871643 778.954163,850.953796 775.656250,855.016541 
	C767.027466,863.823486 758.792664,872.571167 750.302063,881.063293 
	C749.088379,882.277222 746.574036,884.573853 744.881592,880.749512 
	C744.907837,880.331055 744.863098,880.163208 744.880859,879.598267 
	C744.900269,878.132690 744.857056,877.064270 744.896118,875.602417 
	C744.921631,874.143799 744.864868,873.078552 744.872803,871.547852 
	C744.894714,860.724243 744.851929,850.365967 744.874878,839.755798 
	C744.892456,839.337097 744.844238,839.170349 744.871643,838.633789 
	C746.154785,837.121216 747.179443,835.627380 748.597412,834.888916 
	C766.142822,825.752136 768.687378,798.889587 750.896484,787.426392 
	C742.721924,782.159302 733.937744,781.737488 724.854492,784.738892 
	C724.582214,780.801392 723.815247,776.806335 724.263489,772.952637 
	C724.463074,771.236816 726.842163,769.151428 728.705078,768.387207 
	C732.130371,766.982239 735.905884,766.431091 740.923645,765.177185 
	C737.989929,763.599792 736.164001,762.618042 734.169067,761.318115 
M760.430908,863.916382 
	C764.922791,861.746765 762.694519,858.468445 762.357361,854.076782 
	C759.403076,857.806458 755.821594,859.899536 760.430908,863.916382 
M808.286682,810.497192 
	C808.385010,811.173645 808.483398,811.850037 808.581787,812.526489 
	C807.914551,811.682068 807.247253,810.837708 806.580017,809.993286 
	C809.175537,807.576965 811.770996,805.160645 814.366516,802.744263 
	C814.957642,803.293884 815.548828,803.843445 816.139954,804.393066 
	C812.240051,804.053040 809.017822,804.767212 808.286682,810.497192 
M734.314575,772.471619 
	C733.975220,773.019958 733.635864,773.568298 733.296509,774.116638 
	C733.571350,774.251770 733.846130,774.386902 734.120972,774.522034 
	C734.326416,773.985107 734.531799,773.448181 734.314575,772.471619 
z"/>
<path fill="#FFFEFF" opacity="1.000000" stroke="none" 
	d="
M768.220093,753.187317 
	C776.863708,750.562622 785.842590,748.465332 794.685913,745.900940 
	C817.311768,739.340088 838.921448,730.513367 859.332886,718.498779 
	C880.449036,706.069580 899.363831,691.050293 916.944214,673.710449 
	C917.438660,678.025818 917.823059,682.510010 917.826233,686.994568 
	C917.826904,687.954590 916.556030,689.612854 915.681213,689.751343 
	C912.464783,690.260681 909.085999,690.804199 905.923767,690.319885 
	C902.256470,689.758118 901.019287,690.825928 900.914673,694.330139 
	C900.880554,695.471985 900.140686,697.317017 899.317688,697.582458 
	C896.186401,698.592773 894.162659,699.793762 895.629211,703.605408 
	C895.693726,703.772949 892.560608,705.846741 890.911926,705.853943 
	C887.679199,705.867981 885.751892,707.088745 885.139648,710.103943 
	C884.305481,714.212219 881.813782,715.522522 877.916199,715.010315 
	C874.125854,714.512085 871.383484,715.275940 869.893921,719.581299 
	C869.383301,721.057373 866.089050,721.713745 863.959106,722.421082 
	C863.004700,722.737915 861.785950,722.258362 861.027344,722.176819 
	C860.859375,724.213623 860.720093,725.902649 860.580811,727.591797 
	C858.931946,726.766357 857.283203,725.940918 855.043030,724.819458 
	C854.251831,727.312134 853.385986,730.482788 852.208740,733.533325 
	C851.730713,734.772034 850.574951,735.749268 849.727600,736.845459 
	C848.771912,735.897278 847.896423,734.845703 846.840637,734.026489 
	C845.466858,732.960693 843.892273,731.263245 842.511719,731.360840 
	C841.270508,731.448486 840.244324,733.669800 838.997192,734.812256 
	C837.450562,736.229126 835.775635,738.654053 834.153442,738.656250 
	C822.452087,738.672058 822.451843,738.512634 820.479187,749.227966 
	C814.186707,750.154114 807.913635,751.076294 801.640991,752.001038 
	C797.132874,752.665588 792.639343,753.748474 788.114136,753.901245 
	C781.585938,754.121582 775.034912,753.668030 768.220093,753.187317 
z"/>
<path fill="#FFFEFF" opacity="1.000000" stroke="none" 
	d="
M979.081848,572.394287 
	C979.621033,572.284241 980.069092,572.546326 980.758545,572.904175 
	C981.327759,578.610535 981.689758,584.219482 981.943176,589.833374 
	C981.977539,590.593811 981.694092,591.815247 981.174438,592.085266 
	C975.621094,594.970520 976.951965,600.565613 976.105286,605.162964 
	C975.519348,608.344543 974.268860,609.842529 971.026184,610.031799 
	C964.256165,610.426941 964.383423,610.499329 964.954468,617.261658 
	C965.245483,620.708313 965.005371,624.199768 965.005371,628.362366 
	C962.645691,627.447083 961.331970,626.937500 960.016907,626.427368 
	C958.817322,630.616394 958.892578,630.686829 964.468506,630.398071 
	C964.750122,631.435181 965.374451,632.554016 965.275940,633.605103 
	C965.033752,636.190247 965.189514,640.345947 963.855530,640.954346 
	C961.568115,641.997498 958.241394,640.948303 955.418701,640.417480 
	C955.022339,640.342957 955.150146,638.185303 954.775146,637.080139 
	C954.444885,636.106567 953.750610,635.256409 953.217041,634.351685 
	C952.499634,635.114197 951.594727,635.778381 951.126465,636.671570 
	C950.776855,637.338440 951.162109,638.353516 950.925659,639.123047 
	C949.627380,643.348022 951.438660,649.631958 943.929077,649.877502 
	C943.608948,649.888000 943.322205,650.920776 942.845581,651.798462 
	C944.322449,652.620361 945.629272,653.347595 946.936157,654.074890 
	C946.998596,654.516418 947.061035,654.957947 947.123474,655.399475 
	C943.381042,656.553650 939.638611,657.707825 935.394836,659.016541 
	C934.979004,662.310181 934.362915,666.192688 934.037109,670.099426 
	C933.793396,673.022278 932.993164,674.060242 929.653015,673.535400 
	C926.000916,672.961487 922.159607,673.591736 917.967041,673.452759 
	C945.022339,644.012817 965.914856,610.781006 979.081848,572.394287 
z"/>
<path fill="#FFFEFF" opacity="1.000000" stroke="none" 
	d="
M709.151855,761.307983 
	C711.054382,760.666687 713.108704,760.333313 715.581543,760.000000 
	C713.843018,764.739807 713.005066,764.942017 709.151855,761.307983 
z"/>
<path fill="#FFFEFF" opacity="1.000000" stroke="none" 
	d="
M697.416626,761.000000 
	C698.199341,757.906982 699.950500,758.538574 701.932983,760.639526 
	C700.611084,761.000000 699.222229,761.000000 697.416626,761.000000 
z"/>
<path fill="#FFFEFF" opacity="1.000000" stroke="none" 
	d="
M723.273315,755.113953 
	C723.398682,754.123535 723.797363,753.247070 724.196106,752.370667 
	C724.773499,753.020081 725.350891,753.669495 725.964172,754.659424 
	C725.182190,755.075989 724.364380,755.151917 723.273315,755.113953 
z"/>
<path fill="#FFFFFF" opacity="1.000000" stroke="none" 
	d="
M752.265137,726.393250 
	C766.928894,710.111206 775.515381,690.846985 778.914795,669.431885 
	C782.247620,648.436279 780.693665,627.815613 773.846558,607.343689 
	C762.689514,573.986023 746.788147,543.085693 725.334167,515.509216 
	C712.903198,499.530701 697.269531,486.039429 683.037170,471.467926 
	C668.574768,456.660919 653.905579,442.052032 639.631470,427.066376 
	C630.878784,417.877411 623.627686,407.410858 619.068726,395.544830 
	C615.940186,387.401947 613.442688,378.818970 612.137329,370.209198 
	C607.720398,341.075378 617.468262,314.974640 629.122131,288.841339 
	C638.312195,268.232941 653.185059,252.843185 668.842529,237.782974 
	C690.439941,217.009369 716.209290,202.924820 744.575317,194.022476 
	C757.404602,189.996155 771.045044,188.547501 784.326355,185.975067 
	C786.881836,185.480087 789.478516,185.197678 792.404968,185.866425 
	C784.230530,189.101624 776.064392,192.357758 767.880188,195.567932 
	C747.075195,203.728500 729.523132,216.285645 715.517212,233.803177 
	C709.796570,240.958237 703.044739,247.358643 697.878235,254.870071 
	C690.701843,265.303528 684.003235,276.163696 678.195923,287.407196 
	C674.127441,295.284271 671.003845,303.901215 668.997070,312.544983 
	C662.520203,340.442902 667.920044,366.139862 685.497070,388.919830 
	C692.823853,398.415344 700.163452,408.012878 708.505981,416.581970 
	C717.346741,425.662964 727.397156,433.564667 736.897278,442.006134 
	C742.086731,446.617371 747.511536,451.006683 752.340942,455.971985 
	C765.186035,469.178619 778.489563,482.044159 790.211670,496.203644 
	C798.902405,506.701355 805.561401,518.913513 812.835999,530.543091 
	C822.080322,545.321533 826.559692,562.060547 829.479858,578.839355 
	C831.543884,590.698853 830.658386,603.230408 829.857666,615.380737 
	C829.184204,625.600403 827.304138,635.838318 824.935669,645.825623 
	C821.368591,660.867371 814.872681,674.932373 806.413330,687.756897 
	C798.315308,700.033691 788.813965,711.386353 779.875793,723.104248 
	C779.215698,723.969727 778.122131,724.504456 776.975098,725.402344 
	C776.720093,725.611755 776.336243,725.323853 776.202759,724.800781 
	C776.951965,722.130798 777.046814,720.582886 774.102051,719.887146 
	C772.755066,719.568909 771.558167,718.123230 770.555298,716.962402 
	C769.250732,715.452393 768.206909,713.717041 767.050842,712.078674 
	C765.488831,713.805115 763.803650,715.439392 762.414185,717.295044 
	C761.667297,718.292480 761.427734,719.669861 760.965088,720.860840 
	C762.353577,722.041809 763.520325,723.034180 765.598083,724.801453 
	C760.684692,725.661011 756.844055,726.332886 752.828674,726.840027 
	C752.653931,726.675293 752.265137,726.393250 752.265137,726.393250 
M770.609619,709.797546 
	C770.214661,709.793335 769.819641,709.789124 769.424622,709.784912 
	C769.423096,709.948853 769.410583,710.255249 769.421631,710.256165 
	C769.814697,710.286499 770.209961,710.288147 770.609619,709.797546 
z"/>
<path fill="#FFFFFF" opacity="1.000000" stroke="none" 
	d="
M756.553833,755.077148 
	C754.415527,759.865723 751.283813,757.851868 748.078247,755.528320 
	C750.703979,755.123596 753.406372,755.063049 756.553833,755.077148 
z"/>
<path fill="#FFFFFF" opacity="1.000000" stroke="none" 
	d="
M745.962402,732.958862 
	C747.875183,730.876099 749.827759,728.836365 752.022705,726.594910 
	C752.265137,726.393250 752.653931,726.675293 752.786804,727.209717 
	C752.379272,731.750488 749.585876,732.873596 746.081970,733.087402 
	C746.081970,733.087402 746.002136,733.001831 745.962402,732.958862 
z"/>
<path fill="#FFFEFF" opacity="1.000000" stroke="none" 
	d="
M746.008484,733.455994 
	C749.585876,732.873596 752.379272,731.750488 752.961548,727.374512 
	C756.844055,726.332886 760.684692,725.661011 765.598083,724.801453 
	C763.520325,723.034180 762.353577,722.041809 760.965088,720.860840 
	C761.427734,719.669861 761.667297,718.292480 762.414185,717.295044 
	C763.803650,715.439392 765.488831,713.805115 767.050842,712.078674 
	C768.206909,713.717041 769.250732,715.452393 770.555298,716.962402 
	C771.558167,718.123230 772.755066,719.568909 774.102051,719.887146 
	C777.046814,720.582886 776.951965,722.130798 776.030029,724.634277 
	C772.607422,726.879883 769.306030,728.940491 765.816956,730.608521 
	C762.517761,732.185913 759.021484,733.350952 755.611877,734.697388 
	C755.197327,734.219116 754.782715,733.740784 754.368103,733.262512 
	C754.176758,735.132263 753.985352,737.001953 753.671997,740.063293 
	C751.155212,739.825378 748.464294,739.946350 746.125061,739.097839 
	C745.505615,738.873047 745.968872,735.663574 746.008484,733.455994 
z"/>
<path fill="#FFFEFF" opacity="1.000000" stroke="none" 
	d="
M739.499146,747.541138 
	C737.463806,749.003845 735.806030,750.493164 733.865723,751.316833 
	C732.739929,751.794861 731.159851,751.203003 729.784241,751.092590 
	C729.955444,749.885498 729.682495,748.182617 730.377380,747.560059 
	C732.925842,745.276855 735.669556,743.135742 738.617737,741.418335 
	C739.570984,740.863159 741.378967,741.775269 743.525024,742.140137 
	C741.854858,744.422729 740.806519,745.855530 739.499146,747.541138 
z"/>
<path fill="#FFFFFF" opacity="1.000000" stroke="none" 
	d="
M975.033936,347.148926 
	C975.419128,346.384338 975.790405,345.976105 976.161743,345.567902 
	C976.454529,346.794617 976.747314,348.021301 977.040100,349.248016 
	C976.684387,349.351532 976.328674,349.455048 975.972900,349.558563 
	C975.655273,348.874146 975.337646,348.189697 975.033936,347.148926 
z"/>
<path fill="#FFFFFF" opacity="1.000000" stroke="none" 
	d="
M891.308655,214.526062 
	C890.551819,214.531891 890.014893,214.326416 889.477905,214.120956 
	C889.613159,213.846115 889.748352,213.571259 889.883545,213.296402 
	C890.431824,213.635849 890.980164,213.975311 891.308655,214.526062 
z"/>
<path fill="#FFFFFF" opacity="1.000000" stroke="none" 
	d="
M895.392700,219.954468 
	C895.790039,219.712051 896.185303,219.713715 896.578308,219.744034 
	C896.589417,219.744888 896.576904,220.051254 896.575378,220.215149 
	C896.180359,220.210968 895.785339,220.206772 895.392700,219.954468 
z"/>
<path fill="#89623F" opacity="1.000000" stroke="none" 
	d="
M819.759155,811.921875 
	C820.478394,811.245605 821.197632,810.569397 822.377808,809.511963 
	C824.222900,807.421387 825.607056,805.711914 826.991211,804.002441 
	C827.524353,803.450989 828.057434,802.899536 829.119324,802.107666 
	C831.832947,799.783752 834.017761,797.700195 836.202515,795.616577 
	C837.496765,795.401794 838.873901,794.799744 840.067322,795.055420 
	C842.311768,795.536316 846.157837,796.271240 846.307007,797.328247 
	C846.726440,800.300537 846.721558,804.577148 844.920105,806.426392 
	C826.262451,825.579773 807.208862,844.347229 788.282410,863.239075 
	C774.648865,876.847656 761.021606,890.462646 747.458618,904.141296 
	C746.360107,905.249023 745.780396,906.871277 744.662109,908.638306 
	C744.119324,909.181946 743.873962,909.341736 743.628601,909.501465 
	C744.029297,909.674561 744.430054,909.847656 744.830811,910.020752 
	C744.866638,910.767273 744.902466,911.513794 744.724854,912.728271 
	C744.614929,913.466980 744.718506,913.737732 744.822144,914.008423 
	C744.868896,936.454041 744.883728,958.899780 744.989868,981.345154 
	C745.010803,985.766907 742.683044,988.478027 738.703247,988.824158 
	C735.371277,989.113892 731.738831,988.213867 731.026550,982.901733 
	C730.930725,959.045288 730.858704,936.024292 730.786682,913.003296 
	C730.822571,912.557617 730.858459,912.111877 730.932739,911.021729 
	C730.645081,909.917297 730.319031,909.457336 729.992981,908.997375 
	C708.398193,887.481140 686.795044,865.973206 665.211670,844.445557 
	C651.409241,830.678711 637.618225,816.900208 623.859741,803.089417 
	C619.600891,798.814331 618.841309,795.274109 621.317810,792.294556 
	C624.366028,788.627136 629.595703,788.906311 633.842773,793.128723 
	C645.183716,804.403870 656.470459,815.733582 667.775085,827.045227 
	C687.321838,846.604004 706.865967,866.165405 726.833069,886.175293 
	C728.255310,887.549072 729.255676,888.473206 730.780212,889.881592 
	C730.780212,887.037537 730.780212,885.013245 730.780212,882.988953 
	C730.824585,882.546448 730.868958,882.103943 730.949097,880.869995 
	C730.996948,867.336731 731.066284,854.594238 730.932312,841.853882 
	C730.918884,840.580200 729.671143,839.319519 728.996216,838.052795 
	C724.786865,835.395325 719.987244,833.352417 716.470337,829.974121 
	C701.218140,815.323303 707.563843,793.506836 724.270813,785.109619 
	C724.470337,784.875366 724.558960,784.541870 724.706726,784.640381 
	C733.937744,781.737488 742.721924,782.159302 750.896484,787.426392 
	C768.687378,798.889587 766.142822,825.752136 748.597412,834.888916 
	C747.179443,835.627380 746.154785,837.121216 744.728027,838.729980 
	C744.608887,839.466553 744.709045,839.737183 744.809143,840.007751 
	C744.851929,850.365967 744.894714,860.724243 744.647522,871.774963 
	C744.509583,873.643555 744.661682,874.819702 744.813782,875.995789 
	C744.857056,877.064270 744.900269,878.132690 744.735596,879.693726 
	C744.476807,880.289673 744.355652,880.435181 744.387756,880.488831 
	C744.500183,880.676392 744.665527,880.832214 744.810669,881.000122 
	C746.574036,884.573853 749.088379,882.277222 750.302063,881.063293 
	C758.792664,872.571167 767.027466,863.823486 775.996582,855.006958 
	C782.299255,849.312744 787.949585,843.769104 793.883301,838.086670 
	C799.629333,832.329102 805.091980,826.710388 810.554626,821.091675 
	C810.554626,821.091675 810.873779,820.871460 811.241577,820.629517 
	C812.206848,819.671082 812.804321,818.954590 813.401794,818.238159 
	C814.132507,817.583008 814.863281,816.927917 816.038208,815.923584 
	C817.574585,814.356873 818.666870,813.139404 819.759155,811.921875 
z"/>
<path fill="#FEE8D3" opacity="1.000000" stroke="none" 
	d="
M730.530273,913.327515 
	C730.858704,936.024292 730.930725,959.045288 730.935059,982.530029 
	C730.582947,982.417175 730.049072,981.840088 730.050232,981.263977 
	C730.094360,958.726562 730.187256,936.189148 730.530273,913.327515 
z"/>
<path fill="#EFE4D2" opacity="1.000000" stroke="none" 
	d="
M810.249268,820.825806 
	C805.091980,826.710388 799.629333,832.329102 793.525635,838.027466 
	C792.644897,838.083191 792.405273,838.059326 792.165527,838.035522 
	C795.795654,834.027893 799.311890,829.908264 803.101685,826.057861 
	C805.140198,823.986816 807.647888,822.377563 810.249268,820.825806 
z"/>
<path fill="#EEE2CF" opacity="1.000000" stroke="none" 
	d="
M791.812866,838.083252 
	C792.405273,838.059326 792.644897,838.083191 793.242249,838.166260 
	C787.949585,843.769104 782.299255,849.312744 776.308594,854.865845 
	C778.954163,850.953796 781.757019,846.871643 784.999023,843.174561 
	C786.768616,841.156555 789.282166,839.790894 791.812866,838.083252 
z"/>
<path fill="#FDE6CF" opacity="1.000000" stroke="none" 
	d="
M729.059448,838.462891 
	C729.671143,839.319519 730.918884,840.580200 730.932312,841.853882 
	C731.066284,854.594238 730.996948,867.336731 730.895264,880.539978 
	C730.530762,879.243103 730.030884,877.486572 730.018188,875.726440 
	C729.943359,865.398071 730.026306,855.068542 729.943970,844.740295 
	C729.928345,842.782471 729.409363,840.828674 729.059448,838.462891 
z"/>
<path fill="#FFFFFF" opacity="1.000000" stroke="none" 
	d="
M760.034485,863.910950 
	C755.821594,859.899536 759.403076,857.806458 762.357361,854.076782 
	C762.694519,858.468445 764.922791,861.746765 760.034485,863.910950 
z"/>
<path fill="#FFFFFF" opacity="1.000000" stroke="none" 
	d="
M808.432068,810.153015 
	C809.017822,804.767212 812.240051,804.053040 816.139954,804.393066 
	C815.548828,803.843445 814.957642,803.293884 814.366516,802.744263 
	C811.770996,805.160645 809.175537,807.576965 806.580017,809.993286 
	C807.247253,810.837708 807.914551,811.682068 808.581787,812.526489 
	C808.483398,811.850037 808.385010,811.173645 808.432068,810.153015 
z"/>
<path fill="#EEE3D0" opacity="1.000000" stroke="none" 
	d="
M836.057617,795.293518 
	C834.017761,797.700195 831.832947,799.783752 829.310547,801.891296 
	C830.574402,798.888977 830.318787,794.007080 836.057617,795.293518 
z"/>
<path fill="#EEE3D0" opacity="1.000000" stroke="none" 
	d="
M826.613647,804.025330 
	C825.607056,805.711914 824.222900,807.421387 822.524780,809.253540 
	C821.746216,806.235535 823.050720,804.431396 826.613647,804.025330 
z"/>
<path fill="#FDE6CF" opacity="1.000000" stroke="none" 
	d="
M730.546326,883.204468 
	C730.780212,885.013245 730.780212,887.037537 730.780212,889.881592 
	C729.255676,888.473206 728.255310,887.549072 727.136230,886.322693 
	C728.115906,885.153625 729.214172,884.286804 730.546326,883.204468 
z"/>
<path fill="#EFE4D2" opacity="1.000000" stroke="none" 
	d="
M819.468567,811.892578 
	C818.666870,813.139404 817.574585,814.356873 816.186462,815.668884 
	C815.363831,813.095642 815.441162,810.937195 819.468567,811.892578 
z"/>
<path fill="#FFFFFF" opacity="1.000000" stroke="none" 
	d="
M671.346680,861.994690 
	C671.411926,861.126160 671.823914,860.252319 672.235840,859.378479 
	C672.682739,859.771057 673.129578,860.163574 673.576477,860.556152 
	C672.948792,861.033875 672.321106,861.511597 671.346680,861.994690 
z"/>
<path fill="#FFFFFF" opacity="1.000000" stroke="none" 
	d="
M734.525879,772.691406 
	C734.531799,773.448181 734.326416,773.985107 734.120972,774.522034 
	C733.846130,774.386902 733.571350,774.251770 733.296509,774.116638 
	C733.635864,773.568298 733.975220,773.019958 734.525879,772.691406 
z"/>
<path fill="#EFE4D2" opacity="1.000000" stroke="none" 
	d="
M812.980835,818.180908 
	C812.804321,818.954590 812.206848,819.671082 811.357666,820.474243 
	C811.590698,819.748535 812.075256,818.936096 812.980835,818.180908 
z"/>
<path fill="#856F59" opacity="1.000000" stroke="none" 
	d="
M744.896118,875.602417 
	C744.661682,874.819702 744.509583,873.643555 744.582886,872.240356 
	C744.864868,873.078552 744.921631,874.143799 744.896118,875.602417 
z"/>
<path fill="#FEE8D3" opacity="1.000000" stroke="none" 
	d="
M729.997620,909.282471 
	C730.319031,909.457336 730.645081,909.917297 730.883179,910.689087 
	C730.530945,910.523193 730.266602,910.045349 729.997620,909.282471 
z"/>
<path fill="#86715C" opacity="1.000000" stroke="none" 
	d="
M744.897095,909.760498 
	C744.430054,909.847656 744.029297,909.674561 743.628601,909.501465 
	C743.873962,909.341736 744.119324,909.181946 744.600952,909.000183 
	C744.879272,909.152222 744.921387,909.326294 744.897095,909.760498 
z"/>
<path fill="#856F59" opacity="1.000000" stroke="none" 
	d="
M744.874878,839.755798 
	C744.709045,839.737183 744.608887,839.466553 744.652405,839.099792 
	C744.844238,839.170349 744.892456,839.337097 744.874878,839.755798 
z"/>
<path fill="#856F59" opacity="1.000000" stroke="none" 
	d="
M744.881592,880.749512 
	C744.665527,880.832214 744.500183,880.676392 744.387756,880.488831 
	C744.355652,880.435181 744.476807,880.289673 744.672974,880.090881 
	C744.863098,880.163208 744.907837,880.331055 744.881592,880.749512 
z"/>
<path fill="#86715C" opacity="1.000000" stroke="none" 
	d="
M744.886597,913.754272 
	C744.718506,913.737732 744.614929,913.466980 744.653992,913.097717 
	C744.848145,913.166138 744.899658,913.333130 744.886597,913.754272 
z"/>
<path fill="#FFFEFF" opacity="1.000000" stroke="none" 
	d="
M770.607300,710.045715 
	C770.209961,710.288147 769.814697,710.286499 769.421631,710.256165 
	C769.410583,710.255249 769.423096,709.948853 769.424683,709.784912 
	C769.819641,709.789124 770.214661,709.793335 770.607300,710.045715 
z"/>
</svg>